<svg xmlns="http://www.w3.org/2000/svg" width="128" height="128" viewBox="0 0 128 128">
<path d="M 37.44 91.20 L 74.56 44.80" stroke="#493323" stroke-width="5" stroke-linecap="round"/>
<path d="M 37.44 91.20 L 74.56 44.80" stroke="#ad7c42" stroke-width="3" stroke-linecap="round"/>
<path d="M 53.44 83.20 L 90.56 36.80" stroke="#493323" stroke-width="5" stroke-linecap="round"/>
<path d="M 53.44 83.20 L 90.56 36.80" stroke="#ad7c42" stroke-width="3" stroke-linecap="round"/>
<path d="M 40.00 88.00 L 56.00 80.00" stroke="#533923" stroke-width="4" stroke-linecap="round"/>
<path d="M 40.00 88.00 L 56.00 80.00" stroke="#e1bb74" stroke-width="2" stroke-linecap="round"/>
<path d="M 45.33 81.33 L 61.33 73.33" stroke="#533923" stroke-width="4" stroke-linecap="round"/>
<path d="M 45.33 81.33 L 61.33 73.33" stroke="#e1bb74" stroke-width="2" stroke-linecap="round"/>
<path d="M 50.67 74.67 L 66.67 66.67" stroke="#533923" stroke-width="4" stroke-linecap="round"/>
<path d="M 50.67 74.67 L 66.67 66.67" stroke="#e1bb74" stroke-width="2" stroke-linecap="round"/>
<path d="M 56.00 68.00 L 72.00 60.00" stroke="#533923" stroke-width="4" stroke-linecap="round"/>
<path d="M 56.00 68.00 L 72.00 60.00" stroke="#e1bb74" stroke-width="2" stroke-linecap="round"/>
<path d="M 61.33 61.33 L 77.33 53.33" stroke="#533923" stroke-width="4" stroke-linecap="round"/>
<path d="M 61.33 61.33 L 77.33 53.33" stroke="#e1bb74" stroke-width="2" stroke-linecap="round"/>
<path d="M 66.67 54.67 L 82.67 46.67" stroke="#533923" stroke-width="4" stroke-linecap="round"/>
<path d="M 66.67 54.67 L 82.67 46.67" stroke="#e1bb74" stroke-width="2" stroke-linecap="round"/>
<path d="M 72.00 48.00 L 88.00 40.00" stroke="#533923" stroke-width="4" stroke-linecap="round"/>
<path d="M 72.00 48.00 L 88.00 40.00" stroke="#e1bb74" stroke-width="2" stroke-linecap="round"/>
</svg>